#N canvas 514 178 450 300 12;
#X obj 111 5 inlet;
#X obj 111 36 bng 19 250 50 0 empty empty empty 0 -10 0 12 #fcfcfc #000000 #000000;
#X obj 112 63 random 8;
#X floatatom 112 87 5 0 0 0 - - - 0;
#X obj 112 110 sel 0 1 2 3 4 5 6 7;
#X msg 17 156 60;
#X msg 67 156 62;
#X msg 109 155 64;
#X msg 151 155 65;
#X msg 187 156 67;
#X msg 224 156 69;
#X msg 263 156 71;
#X msg 305 157 72;
#X floatatom 153 206 5 0 0 0 - - - 0;
#X obj 153 229 mtof;
#X floatatom 153 253 5 0 0 0 - - - 0;
#X obj 153 276 outlet;
#X connect 0 0 1 0;
#X connect 1 0 2 0;
#X connect 2 0 3 0;
#X connect 3 0 4 0;
#X connect 4 0 5 0;
#X connect 4 1 6 0;
#X connect 4 2 7 0;
#X connect 4 3 8 0;
#X connect 4 4 9 0;
#X connect 4 5 10 0;
#X connect 4 6 11 0;
#X connect 4 7 12 0;
#X connect 5 0 13 0;
#X connect 6 0 13 0;
#X connect 7 0 13 0;
#X connect 8 0 13 0;
#X connect 9 0 13 0;
#X connect 10 0 13 0;
#X connect 11 0 13 0;
#X connect 12 0 13 0;
#X connect 13 0 14 0;
#X connect 14 0 15 0;
#X connect 15 0 16 0;
