#N canvas 658 -10 1920 989 12;
#X obj 111 20 loadbang;
#X msg 111 56 60000;
#X obj 195 19 loadbang;
#X msg 195 56 60;
#X floatatom 195 93 5 0 0 0 - - - 0;
#X obj 169 143 bng 19 250 50 0 empty empty empty 0 -10 0 12 #fcfcfc #000000 #000000;
#X obj 170 178 /;
#X floatatom 170 211 5 0 0 0 - - - 0;
#X obj 170 244 send 4th_time;
#X obj 304 18 receive ON;
#X obj 393 16 receive 4th_time;
#X obj 393 56 * 4;
#X floatatom 393 92 5 0 0 0 - - - 0;
#X obj 351 139 metro;
#X obj 406 139 send whole_time;
#X obj 351 176 bng 19 250 50 0 empty empty empty 0 -10 0 12 #fcfcfc #000000 #000000;
#X obj 351 216 send whole_note;
#X obj 546 14 receive ON;
#X obj 635 12 receive 4th_time;
#X floatatom 635 88 5 0 0 0 - - - 0;
#X obj 593 135 metro;
#X obj 593 172 bng 19 250 50 0 empty empty empty 0 -10 0 12 #fcfcfc #000000 #000000;
#X obj 635 52 * 1;
#X obj 593 212 send 4th_note;
#X obj 33 24 tgl 19 0 empty empty empty 0 -10 0 12 #fcfcfc #000000 #000000 0 1;
#X obj 33 68 send ON;
#X obj 94 298 receive ON;
#X obj 94 336 sel 0;
#X obj 16 339 loadbang;
#X obj 94 378 bng 19 250 50 0 empty empty empty 0 -10 0 12 #fcfcfc #000000 #000000;
#X msg 94 414 -1;
#X obj 181 299 receive whole_note;
#X obj 181 334 bng 19 250 50 0 empty empty empty 0 -10 0 12 #fcfcfc #000000 #000000;
#X obj 181 373 int 1;
#X obj 283 420 + 1;
#X obj 181 458 % 2;
#X obj 181 497 + 1;
#X obj 181 532 sel 1;
#X obj 181 570 bng 19 250 50 0 empty empty empty 0 -10 0 12 #fcfcfc #000000 #000000;
#X obj 181 614 tgl 19 0 empty empty empty 0 -10 0 12 #fcfcfc #000000 #000000 0 1;
#X obj 181 658 send Chord;
#X obj 49 469 receive ON;
#X obj 49 507 sel 0;
#X msg 72 559 1;
#X obj 101 508 loadbang;
#X floatatom 181 418 5 0 0 0 - - - 0;
#X obj 802 14 receive Chord;
#X obj 802 38 tgl 19 0 empty empty empty 0 -10 0 12 #fcfcfc #000000 #000000 0 1;
#X obj 802 62 sel 0;
#X obj 802 96 bng 19 250 50 0 empty empty empty 0 -10 0 12 #fcfcfc #000000 #000000;
#X obj 856 96 bng 19 250 50 0 empty empty empty 0 -10 0 12 #fcfcfc #000000 #000000;
#X msg 801 132 130;
#X msg 856 132 87;
#X floatatom 802 164 5 0 0 0 - - - 0;
#X obj 802 199 phasor~;
#X obj 801 246 lop~ 100;
#X obj 802 298 *~;
#X obj 910 14 receive ON;
#X obj 910 66 sel 1;
#X obj 910 108 bng 19 250 50 0 empty empty empty 0 -10 0 12 #fcfcfc #000000 #000000;
#X msg 910 149 1 500;
#X obj 910 181 line;
#X obj 1017 12 receive whole_time;
#X obj 1017 54 * 2;
#X floatatom 1017 88 5 0 0 0 - - - 0;
#X obj 1017 124 - 100;
#X obj 985 157 delay;
#X msg 985 197 0 100;
#X obj 1070 74 receive ON;
#X obj 1070 98 sel 0;
#X obj 1070 122 delay 5;
#X obj 722 455 bng 19 250 50 0 empty empty empty 0 -10 0 12 #fcfcfc #000000 #000000;
#X obj 794 544 * 1.001;
#X obj 794 607 phasor~;
#X obj 722 608 phasor~;
#X obj 723 647 lop~ 100;
#X obj 911 508 bng 19 250 50 0 empty empty empty 0 -10 0 12 #fcfcfc #000000 #000000;
#X msg 911 546 1 500;
#X obj 963 546 delay;
#X obj 911 589 line;
#X obj 722 683 *~;
#X obj 723 712 *~ 0.5;
#X obj 723 743 send~ Ambient_Pad;
#X msg 965 580 0 500;
#X obj 995 435 receive whole_time;
#X floatatom 995 471 5 0 0 0 - - - 0;
#X obj 1052 470 receive ON;
#X obj 995 510 - 500;
#X obj 1052 510 sel 0;
#X obj 1052 543 delay 5;
#X obj 722 421 receive whole_note;
#X obj 1347 187 receive~ Bass;
#X obj 802 340 send~ Bass;
#X obj 1496 145 receive~ Ambient_Pad;
#X obj 1621 38 loadbang;
#X msg 1621 76 1;
#X msg 1621 114 wet \$1;
#X obj 1499 255 freeverb~;
#X msg 1704 77 0.5;
#X msg 1774 76 0.95;
#X msg 1704 114 dry \$1;
#X msg 1774 114 roomsize \$1;
#X obj 1487 303 *~ 0.5;
#X obj 1605 262 *~ 0.5;
#X obj 1487 347 dac~;
#X floatatom 721 517 5 0 0 0 - - - 0;
#X floatatom 794 576 5 0 0 0 - - - 0;
#X obj 1692 36 loadbang;
#X obj 1768 41 loadbang;
#X obj 48 11 inlet;
#X obj 48 35 bng 19 250 50 0 empty empty empty 0 -10 0 12 #fcfcfc #000000 #000000;
#X obj 49 61 random 8;
#X floatatom 48 86 5 0 0 0 - - - 0;
#X obj 27 120 sel 0;
#X msg 27 144 60;
#X obj 76 120 sel 1;
#X msg 76 144 62;
#X obj 124 119 sel 2;
#X obj 173 119 sel 3;
#X msg 124 143 64;
#X msg 173 143 65;
#X obj 225 120 sel 4;
#X obj 274 120 sel 5;
#X obj 322 119 sel 6;
#X obj 371 119 sel 7;
#X msg 225 144 67;
#X msg 274 144 69;
#X msg 322 143 71;
#X msg 371 143 72;
#X floatatom 195 178 5 0 0 0 - - - 0;
#X obj 194 201 mtof;
#X floatatom 193 227 5 0 0 0 - - - 0;
#X obj 193 256 outlet;
#X connect 0 0 1 0;
#X connect 1 0 2 0;
#X connect 2 0 3 0;
#X connect 3 0 4 0;
#X connect 3 0 6 0;
#X connect 3 0 8 0;
#X connect 3 0 9 0;
#X connect 3 0 12 0;
#X connect 3 0 13 0;
#X connect 3 0 14 0;
#X connect 3 0 15 0;
#X connect 4 0 5 0;
#X connect 5 0 20 0;
#X connect 6 0 7 0;
#X connect 7 0 20 0;
#X connect 8 0 10 0;
#X connect 9 0 11 0;
#X connect 10 0 20 0;
#X connect 11 0 20 0;
#X connect 12 0 16 0;
#X connect 13 0 17 0;
#X connect 14 0 18 0;
#X connect 15 0 19 0;
#X connect 16 0 20 0;
#X connect 17 0 20 0;
#X connect 18 0 20 0;
#X connect 19 0 20 0;
#X connect 20 0 21 0;
#X connect 21 0 22 0;
#X connect 22 0 23 0;
#X connect 0 0 1 0;
#X connect 1 0 6 0;
#X connect 2 0 3 0;
#X connect 3 0 4 0;
#X connect 4 0 5 0;
#X connect 4 0 6 1;
#X connect 5 0 6 0;
#X connect 6 0 7 0;
#X connect 7 0 8 0;
#X connect 9 0 13 0;
#X connect 10 0 11 0;
#X connect 11 0 12 0;
#X connect 12 0 14 0;
#X connect 12 0 13 1;
#X connect 13 0 15 0;
#X connect 15 0 16 0;
#X connect 17 0 20 0;
#X connect 18 0 22 0;
#X connect 19 0 20 1;
#X connect 20 0 21 0;
#X connect 21 0 23 0;
#X connect 22 0 19 0;
#X connect 24 0 25 0;
#X connect 26 0 27 0;
#X connect 27 0 29 0;
#X connect 28 0 29 0;
#X connect 29 0 30 0;
#X connect 30 0 33 0;
#X connect 31 0 32 0;
#X connect 32 0 33 0;
#X connect 33 0 34 0;
#X connect 33 0 45 0;
#X connect 34 0 33 1;
#X connect 35 0 36 0;
#X connect 36 0 37 0;
#X connect 37 0 38 0;
#X connect 38 0 39 0;
#X connect 39 0 40 0;
#X connect 41 0 42 0;
#X connect 42 0 43 0;
#X connect 43 0 39 0;
#X connect 44 0 43 0;
#X connect 45 0 35 0;
#X connect 46 0 47 0;
#X connect 47 0 48 0;
#X connect 48 0 49 0;
#X connect 48 1 50 0;
#X connect 49 0 51 0;
#X connect 50 0 52 0;
#X connect 51 0 53 0;
#X connect 52 0 53 0;
#X connect 53 0 54 0;
#X connect 54 0 55 0;
#X connect 55 0 56 0;
#X connect 56 0 92 0;
#X connect 57 0 58 0;
#X connect 58 0 59 0;
#X connect 59 0 60 0;
#X connect 60 0 61 0;
#X connect 61 0 56 1;
#X connect 62 0 63 0;
#X connect 63 0 64 0;
#X connect 64 0 65 0;
#X connect 65 0 66 1;
#X connect 66 0 67 0;
#X connect 67 0 61 0;
#X connect 68 0 69 0;
#X connect 69 0 70 0;
#X connect 70 0 67 0;
#X connect 71 0 109 0;
#X connect 72 0 106 0;
#X connect 73 0 75 0;
#X connect 74 0 75 0;
#X connect 75 0 80 0;
#X connect 76 0 77 0;
#X connect 76 0 78 0;
#X connect 77 0 79 0;
#X connect 78 0 83 0;
#X connect 79 0 80 1;
#X connect 80 0 81 0;
#X connect 81 0 82 0;
#X connect 83 0 79 0;
#X connect 84 0 85 0;
#X connect 85 0 87 0;
#X connect 86 0 88 0;
#X connect 87 0 78 1;
#X connect 88 0 89 0;
#X connect 89 0 83 0;
#X connect 90 0 71 0;
#X connect 90 0 76 0;
#X connect 91 0 103 0;
#X connect 91 0 102 0;
#X connect 93 0 97 0;
#X connect 93 0 97 1;
#X connect 94 0 95 0;
#X connect 95 0 96 0;
#X connect 96 0 97 0;
#X connect 97 0 102 0;
#X connect 97 1 103 0;
#X connect 98 0 100 0;
#X connect 99 0 101 0;
#X connect 100 0 97 0;
#X connect 101 0 97 0;
#X connect 102 0 104 0;
#X connect 103 0 104 1;
#X connect 105 0 72 0;
#X connect 105 0 74 0;
#X connect 106 0 73 0;
#X connect 107 0 98 0;
#X connect 108 0 99 0;
#X connect 109 0 105 0;
