#N canvas -7 0 958 980 12;
#X obj 12 11 loadbang;
#X msg 12 47 6000;
#X obj 121 15 loadbang;
#X msg 121 39 60;
#X floatatom 121 67 5 0 0 0 - - - 0;
#X obj 92 91 bng 19 250 50 0 empty empty empty 0 -10 0 12 #fcfcfc #000000 #000000;
#X obj 105 153 /;
#X floatatom 105 185 5 0 0 0 - - - 0;
#X obj 105 218 send 4th_time;
#X obj 232 14 receive ON;
#X obj 234 127 metro;
#X obj 342 17 receive 4th_time;
#X obj 342 41 * 4;
#X floatatom 342 65 5 0 0 0 - - - 0;
#X obj 375 106 send whole_time;
#X obj 234 160 bng 19 250 50 0 empty empty empty 0 -10 0 12 #fcfcfc #000000 #000000;
#X obj 234 184 send whole_note;
#X obj 508 15 receive ON;
#X obj 510 128 metro;
#X obj 618 18 receive 4th_time;
#X floatatom 618 66 5 0 0 0 - - - 0;
#X obj 510 161 bng 19 250 50 0 empty empty empty 0 -10 0 12 #fcfcfc #000000 #000000;
#X obj 618 42 * 1;
#X obj 510 185 send 4th_note;
#X obj 765 18 tgl 19 0 empty empty empty 0 -10 0 12 #fcfcfc #000000 #000000 0 1;
#X obj 765 54 send ON;
#X obj 36 341 receive Chord;
#X obj 36 365 tgl 19 0 empty empty empty 0 -10 0 12 #fcfcfc #000000 #000000 0 1;
#X obj 36 396 sel 0;
#X obj 36 431 bng 19 250 50 0 empty empty empty 0 -10 0 12 #fcfcfc #000000 #000000;
#X obj 96 436 bng 19 250 50 0 empty empty empty 0 -10 0 12 #fcfcfc #000000 #000000;
#X msg 96 460 87.31;
#X floatatom 68 501 5 0 0 0 - - - 0;
#X msg 36 462 130.81;
#X obj 68 524 phasor~;
#X obj 68 548 lop~ 100;
#X obj 68 572 *~;
#X obj 68 596 send~ Bass;
#X obj 228 392 receive ON;
#X obj 228 416 sel 1;
#X obj 228 440 bng 19 250 50 0 empty empty empty 0 -10 0 12 #fcfcfc #000000 #000000;
#X connect 0 0 1 0;
#X connect 1 0 6 0;
#X connect 2 0 3 0;
#X connect 3 0 4 0;
#X connect 4 0 5 0;
#X connect 4 0 6 1;
#X connect 5 0 6 0;
#X connect 6 0 7 0;
#X connect 7 0 8 0;
#X connect 9 0 10 0;
#X connect 10 0 15 0;
#X connect 11 0 12 0;
#X connect 12 0 13 0;
#X connect 13 0 10 1;
#X connect 13 0 14 0;
#X connect 15 0 16 0;
#X connect 17 0 18 0;
#X connect 18 0 21 0;
#X connect 19 0 22 0;
#X connect 20 0 18 1;
#X connect 21 0 23 0;
#X connect 22 0 20 0;
#X connect 24 0 25 0;
#X connect 26 0 27 0;
#X connect 27 0 28 0;
#X connect 28 0 29 0;
#X connect 28 1 30 0;
#X connect 29 0 33 0;
#X connect 30 0 31 0;
#X connect 31 0 32 0;
#X connect 32 0 34 0;
#X connect 33 0 32 0;
#X connect 34 0 35 0;
#X connect 35 0 36 0;
#X connect 36 0 37 0;
#X connect 38 0 39 0;
#X connect 39 0 40 0;
