#N canvas -7 0 1920 989 12;
#X msg 121 39 60;
#X floatatom 121 67 5 0 0 0 - - - 0;
#X obj 92 91 bng 19 250 50 0 empty empty empty 0 -10 0 12 #fcfcfc #000000 #000000;
#X obj 105 153 /;
#X floatatom 105 185 5 0 0 0 - - - 0;
#X obj 105 218 send 4th_time;
#X obj 232 14 receive ON;
#X obj 234 127 metro;
#X obj 342 17 receive 4th_time;
#X obj 342 41 * 4;
#X floatatom 342 65 5 0 0 0 - - - 0;
#X obj 375 106 send whole_time;
#X obj 234 160 bng 19 250 50 0 empty empty empty 0 -10 0 12 #fcfcfc #000000 #000000;
#X obj 234 184 send whole_note;
#X obj 508 15 receive ON;
#X obj 510 128 metro;
#X obj 618 18 receive 4th_time;
#X floatatom 618 66 5 0 0 0 - - - 0;
#X obj 510 161 bng 19 250 50 0 empty empty empty 0 -10 0 12 #fcfcfc #000000 #000000;
#X obj 618 42 * 1;
#X obj 510 185 send 4th_note;
#X obj 765 18 tgl 19 0 empty empty empty 0 -10 0 12 #fcfcfc #000000 #000000 0 1;
#X obj 765 54 send ON;
#X obj 850 17 receive Chord;
#X obj 850 41 tgl 19 0 empty empty empty 0 -10 0 12 #fcfcfc #000000 #000000 0 1;
#X obj 850 72 sel 0;
#X obj 850 107 bng 19 250 50 0 empty empty empty 0 -10 0 12 #fcfcfc #000000 #000000;
#X obj 910 112 bng 19 250 50 0 empty empty empty 0 -10 0 12 #fcfcfc #000000 #000000;
#X msg 910 136 87.31;
#X floatatom 882 177 5 0 0 0 - - - 0;
#X msg 850 138 130.81;
#X obj 882 200 phasor~;
#X obj 882 224 lop~ 100;
#X obj 882 275 *~;
#X obj 882 299 send~ Bass;
#X obj 966 14 receive ON;
#X obj 966 38 sel 1;
#X obj 966 62 bng 19 250 50 0 empty empty empty 0 -10 0 12 #fcfcfc #000000 #000000;
#X msg 967 103 1 500;
#X obj 967 194 line;
#X obj 1078 19 receive whole_time;
#X obj 1078 43 * 2;
#X floatatom 1078 67 5 0 0 0 - - - 0;
#X obj 1078 90 - 100;
#X obj 1078 123 delay;
#X msg 1078 161 0 100;
#X obj 1150 52 receive ON;
#X obj 1150 76 sel 0;
#X obj 1150 100 delay 5;
#X obj 1211 208 phasor~;
#X obj 1278 256 lop~ 100;
#X obj 1279 293 *~;
#X obj 1367 81 bng 19 250 50 0 empty empty empty 0 -10 0 12 #fcfcfc #000000 #000000;
#X msg 1367 156 1 500;
#X obj 1375 261 line;
#X obj 1478 72 receive whole_time;
#X floatatom 1478 120 5 0 0 0 - - - 0;
#X obj 1446 178 delay;
#X obj 1550 105 receive ON;
#X obj 1550 129 sel 0;
#X obj 1550 153 delay 5;
#X obj 1478 143 - 500;
#X msg 1478 214 0 500;
#X obj 1249 15 receive whole_note;
#X obj 1249 68 bng 19 250 50 0 empty empty empty 0 -10 0 12 #fcfcfc #000000 #000000;
#X obj 1249 101 Chords_scales_2;
#X floatatom 1249 128 5 0 0 0 - - - 0;
#X obj 1279 155 * 1.001;
#X floatatom 1279 179 5 0 0 0 - - - 0;
#X obj 1279 206 phasor~;
#X obj 1280 327 *~ 0.5;
#X obj 1279 364 send~ Ambient;
#X obj 1196 561 receive~ Bass;
#X obj 763 566 receive~ Ambient;
#X obj 763 621 freeverb~;
#X obj 891 564 loadbang;
#X msg 891 588 wet 1;
#X obj 967 564 loadbang;
#X obj 1046 565 loadbang;
#X msg 967 591 dry 0.5;
#X msg 1046 589 roomsize 0.95;
#X msg 12 47 60000;
#X obj 140 263 receive ON;
#X obj 140 293 sel 0;
#X obj 140 317 bng 19 250 50 0 empty empty empty 0 -10 0 12 #fcfcfc #000000 #000000;
#X msg 140 345 -1, f 6;
#X obj 53 304 loadbang;
#X obj 238 259 receive whole_note;
#X obj 238 283 bng 19 250 50 0 empty empty empty 0 -10 0 12 #fcfcfc #000000 #000000;
#X obj 238 321 int 1;
#X obj 305 363 + 1;
#X floatatom 239 367 5 0 0 0 - - - 0;
#X obj 239 390 % 2;
#X obj 239 414 + 1;
#X obj 239 438 sel 1;
#X obj 239 462 bng 19 250 50 0 empty empty empty 0 -10 0 12 #fcfcfc #000000 #000000;
#X obj 240 497 tgl 19 0 empty empty empty 0 -10 0 12 #fcfcfc #000000 #000000 0 1;
#X obj 238 526 send Chord;
#X obj 88 423 receive ON;
#X obj 88 447 sel 0;
#X msg 89 497 1;
#X obj 151 461 loadbang;
#X obj 1641 42 bng 19 250 50 0 empty empty empty 0 -10 0 12 #fcfcfc #000000 #000000;
#X obj 1686 259 lop~ 100;
#X obj 1642 80 Chords_scales_2;
#X obj 1642 104 * 2;
#X obj 1641 13 r 4th_note;
#X obj 1699 138 * 1.001;
#X floatatom 1701 162 5 0 0 0 - - - 0;
#X obj 1686 292 send~ Voice1;
#X obj 580 772 dac~;
#X obj 748 788 dac~;
#X obj 877 794 dac~;
#X obj 316 801 freeverb~;
#X obj 408 574 loadbang;
#X msg 408 598 wet 1;
#X obj 478 571 loadbang;
#X obj 547 571 loadbang;
#X msg 478 598 dry 0.5;
#X obj 581 627 r~ Voice1;
#X obj 581 654 freeverb~;
#X obj 1626 209 osc~;
#X obj 1687 209 osc~;
#X obj 1485 438 receive ON;
#X obj 1485 473 metro;
#X obj 1540 472 receive 4th_time;
#X floatatom 1540 520 5 0 0 0 - - - 0;
#X obj 1485 506 bng 19 250 50 0 empty empty empty 0 -10 0 12 #fcfcfc #000000 #000000;
#X obj 1540 496 / 2;
#X obj 1486 546 int 1;
#X obj 1546 547 + 1;
#X floatatom 1486 574 5 0 0 0 - - - 0;
#X obj 1486 621 + 1;
#X obj 1487 698 bng 19 250 50 0 empty empty empty 0 -10 0 12 #fcfcfc #000000 #000000;
#X obj 1486 597 % 16;
#X obj 1486 645 sel 2 3 5 7 11 13;
#X obj 335 674 *~;
#X obj 335 645 vline~;
#X obj 264 618 noise~;
#X msg 335 615 1 \, 0 100;
#X obj 317 702 *~;
#X obj 1487 741 send burst;
#X obj 335 575 r burst;
#X obj 314 899 dac~;
#X obj 316 764 lop~ 400;
#X obj 315 864 *~ 0.6;
#X msg 547 595 roomsize 0.98;
#X obj 581 690 Noise_mix;
#X floatatom 653 655 5 0.2 1 0 - - - 0;
#X obj 315 831 Noise_mix;
#X floatatom 391 801 5 0.2 1 0 - - - 0;
#X obj 121 15 loadbang;
#X obj 12 11 loadbang;
#X obj 621 309 list prepend;
#X obj 621 339 list trim;
#X obj 621 371 t a a;
#X obj 620 410 print OUTPUT;
#X msg 676 188 devices;
#X msg 628 188 close;
#X floatatom 749 409 5 0 0 0 - - - 0;
#X msg 741 188 open 9;
#X obj 621 239 comport 1 9600;
#X obj 795 188 loadbang;
#X obj 622 277 serial_print;
#X obj 749 352 route alb mov albastru verde galben portocaliu;
#X floatatom 802 408 5 0 0 0 - - - 0;
#X floatatom 873 409 5 0 0 0 - - - 0;
#X floatatom 945 409 5 0 0 0 - - - 0;
#X floatatom 1018 408 5 0 0 0 - - - 0;
#X floatatom 1098 406 5 0 0 0 - - - 0;
#X text 1671 602 instruments;
#X obj 715 444 my_scale;
#X obj 784 443 my_scale;
#X obj 748 717 Noise_mix;
#X floatatom 808 682 5 0 0 0 - - - 0;
#X obj 860 444 my_scale;
#X obj 877 727 Noise_mix;
#X floatatom 936 694 5 0 0 0 - - - 0;
#X obj 936 444 my_scale;
#X obj 749 754 *~ 0.06;
#X obj 878 759 *~ 0.06;
#X obj 580 733 *~ 0.06;
#X obj 1195 596 freeverb~;
#X obj 1180 763 dac~;
#X obj 1180 692 Noise_mix;
#X floatatom 1240 657 5 0 0 0 - - - 0;
#X obj 1270 763 dac~;
#X obj 1270 692 Noise_mix;
#X floatatom 1330 657 5 0 0 0 - - - 0;
#X obj 1014 447 my_scale;
#X obj 1092 444 my_scale;
#X obj 1181 729 *~ 0.2;
#X obj 1271 729 *~ 0.2;
#X connect 0 0 1 0;
#X connect 1 0 2 0;
#X connect 1 0 3 1;
#X connect 2 0 3 0;
#X connect 3 0 4 0;
#X connect 4 0 5 0;
#X connect 6 0 7 0;
#X connect 7 0 12 0;
#X connect 8 0 9 0;
#X connect 9 0 10 0;
#X connect 10 0 7 1;
#X connect 10 0 11 0;
#X connect 12 0 13 0;
#X connect 14 0 15 0;
#X connect 15 0 18 0;
#X connect 16 0 19 0;
#X connect 17 0 15 1;
#X connect 18 0 20 0;
#X connect 19 0 17 0;
#X connect 21 0 22 0;
#X connect 23 0 24 0;
#X connect 24 0 25 0;
#X connect 25 0 26 0;
#X connect 25 1 27 0;
#X connect 26 0 30 0;
#X connect 27 0 28 0;
#X connect 28 0 29 0;
#X connect 29 0 31 0;
#X connect 30 0 29 0;
#X connect 31 0 32 0;
#X connect 32 0 33 0;
#X connect 33 0 34 0;
#X connect 35 0 36 0;
#X connect 36 0 37 0;
#X connect 37 0 38 0;
#X connect 38 0 39 0;
#X connect 39 0 33 1;
#X connect 40 0 41 0;
#X connect 41 0 42 0;
#X connect 42 0 43 0;
#X connect 43 0 44 1;
#X connect 44 0 45 0;
#X connect 45 0 39 0;
#X connect 46 0 47 0;
#X connect 47 0 48 0;
#X connect 48 0 45 0;
#X connect 49 0 50 0;
#X connect 50 0 51 0;
#X connect 51 0 70 0;
#X connect 52 0 53 0;
#X connect 52 0 57 0;
#X connect 53 0 54 0;
#X connect 54 0 51 1;
#X connect 55 0 56 0;
#X connect 56 0 61 0;
#X connect 57 0 62 0;
#X connect 58 0 59 0;
#X connect 59 0 60 0;
#X connect 60 0 62 0;
#X connect 61 0 57 1;
#X connect 62 0 54 0;
#X connect 63 0 64 0;
#X connect 63 0 52 0;
#X connect 64 0 65 0;
#X connect 65 0 66 0;
#X connect 66 0 67 0;
#X connect 66 0 49 0;
#X connect 67 0 68 0;
#X connect 68 0 69 0;
#X connect 69 0 50 0;
#X connect 70 0 71 0;
#X connect 72 0 182 0;
#X connect 73 0 74 1;
#X connect 73 0 74 0;
#X connect 74 0 173 0;
#X connect 74 1 176 0;
#X connect 75 0 76 0;
#X connect 76 0 74 0;
#X connect 77 0 79 0;
#X connect 78 0 80 0;
#X connect 79 0 74 0;
#X connect 80 0 74 0;
#X connect 81 0 3 0;
#X connect 82 0 83 0;
#X connect 83 0 84 0;
#X connect 84 0 85 0;
#X connect 85 0 89 0;
#X connect 86 0 85 0;
#X connect 87 0 88 0;
#X connect 88 0 89 0;
#X connect 89 0 91 0;
#X connect 89 0 90 0;
#X connect 90 0 89 1;
#X connect 91 0 92 0;
#X connect 92 0 93 0;
#X connect 93 0 94 0;
#X connect 94 0 95 0;
#X connect 95 0 96 0;
#X connect 96 0 97 0;
#X connect 98 0 99 0;
#X connect 99 0 100 0;
#X connect 100 0 96 0;
#X connect 101 0 100 0;
#X connect 102 0 104 0;
#X connect 103 0 109 0;
#X connect 104 0 105 0;
#X connect 105 0 107 0;
#X connect 105 0 121 0;
#X connect 106 0 102 0;
#X connect 107 0 108 0;
#X connect 108 0 122 0;
#X connect 113 0 149 0;
#X connect 114 0 115 0;
#X connect 115 0 113 0;
#X connect 115 0 120 0;
#X connect 116 0 118 0;
#X connect 117 0 146 0;
#X connect 118 0 113 0;
#X connect 118 0 120 0;
#X connect 119 0 120 0;
#X connect 120 0 147 0;
#X connect 121 0 103 0;
#X connect 122 0 103 0;
#X connect 123 0 124 0;
#X connect 124 0 127 0;
#X connect 125 0 128 0;
#X connect 126 0 124 1;
#X connect 127 0 129 0;
#X connect 128 0 126 0;
#X connect 129 0 131 0;
#X connect 129 0 130 0;
#X connect 130 0 129 1;
#X connect 131 0 134 0;
#X connect 132 0 135 0;
#X connect 133 0 141 0;
#X connect 134 0 132 0;
#X connect 135 0 133 0;
#X connect 135 1 133 0;
#X connect 135 2 133 0;
#X connect 135 3 133 0;
#X connect 135 4 133 0;
#X connect 135 5 133 0;
#X connect 136 0 140 1;
#X connect 137 0 136 0;
#X connect 137 0 136 1;
#X connect 138 0 140 0;
#X connect 139 0 137 0;
#X connect 140 0 144 0;
#X connect 142 0 139 0;
#X connect 144 0 113 0;
#X connect 145 0 143 0;
#X connect 146 0 113 0;
#X connect 146 0 120 0;
#X connect 147 0 181 0;
#X connect 148 0 147 1;
#X connect 149 0 145 0;
#X connect 150 0 149 1;
#X connect 151 0 0 0;
#X connect 152 0 81 0;
#X connect 153 0 154 0;
#X connect 154 0 155 0;
#X connect 155 0 156 0;
#X connect 155 1 164 0;
#X connect 157 0 161 0;
#X connect 158 0 161 0;
#X connect 159 0 171 0;
#X connect 160 0 161 0;
#X connect 161 0 163 0;
#X connect 162 0 160 0;
#X connect 163 0 153 0;
#X connect 163 1 153 1;
#X connect 164 0 159 0;
#X connect 164 1 165 0;
#X connect 164 2 166 0;
#X connect 164 3 167 0;
#X connect 164 4 168 0;
#X connect 164 5 169 0;
#X connect 165 0 172 0;
#X connect 166 0 175 0;
#X connect 167 0 178 0;
#X connect 168 0 189 0;
#X connect 169 0 190 0;
#X connect 171 0 150 0;
#X connect 172 0 148 0;
#X connect 173 0 179 0;
#X connect 174 0 173 1;
#X connect 175 0 174 0;
#X connect 176 0 180 0;
#X connect 177 0 176 1;
#X connect 178 0 177 0;
#X connect 179 0 111 0;
#X connect 180 0 112 0;
#X connect 181 0 110 0;
#X connect 182 0 184 0;
#X connect 182 0 187 0;
#X connect 184 0 191 0;
#X connect 185 0 184 1;
#X connect 187 0 192 0;
#X connect 188 0 187 1;
#X connect 189 0 185 0;
#X connect 190 0 188 0;
#X connect 191 0 183 0;
#X connect 192 0 186 0;
