#N canvas 1108 231 450 300 12;
#X obj 157 84 / 650;
#X floatatom 158 198 5 0 0 0 - - - 0;
#X obj 158 135 * -1;
#X obj 157 50 inlet;
#X obj 158 232 outlet;
#X obj 158 164 + 1.1;
#X obj 158 111 * 0.9;
#X connect 0 0 6 0;
#X connect 1 0 4 0;
#X connect 2 0 5 0;
#X connect 3 0 0 0;
#X connect 5 0 1 0;
#X connect 6 0 2 0;
