#N canvas 1039 100 767 746 12;
#X obj 89 125 inlet~;
#X obj 149 125 inlet;
#X obj 132 240 *~;
#X obj 149 188 vline~;
#X msg 149 154 \$1 20;
#X obj 130 462 outlet~;
#X obj 236 236 -~;
#X obj 248 149 loadbang;
#X msg 248 173 1;
#X obj 226 341 *~;
#X obj 275 236 noise~;
#X obj 277 304 lop~ 1500;
#X obj 361 229 *~ 750;
#X obj 361 270 +~ 1500;
#X obj 361 117 random 100;
#X obj 361 152 / 100;
#X obj 360 73 loadbang;
#X obj 310 426 *~;
#X obj 362 195 osc~ 0.2;
#X obj 474 262 osc~ 0.05;
#X obj 366 386 *~ 0.8;
#X connect 0 0 2 0;
#X connect 1 0 4 0;
#X connect 2 0 5 0;
#X connect 3 0 2 1;
#X connect 3 0 6 1;
#X connect 4 0 3 0;
#X connect 6 0 9 0;
#X connect 7 0 8 0;
#X connect 8 0 6 0;
#X connect 9 0 17 0;
#X connect 10 0 11 0;
#X connect 11 0 9 1;
#X connect 12 0 13 0;
#X connect 13 0 11 1;
#X connect 14 0 15 0;
#X connect 15 0 18 0;
#X connect 16 0 14 0;
#X connect 17 0 5 0;
#X connect 18 0 12 0;
#X connect 19 0 20 0;
#X connect 20 0 17 1;
